<svg id="Layer_1" data-name="Layer 1" xmlns="http://www.w3.org/2000/svg" viewBox="0 0 351.24 40.84"><defs><style>.cls-1{fill:none;stroke:#1c75bc;stroke-linecap:round;stroke-linejoin:round;stroke-width:2.75px;}</style></defs><title>LumpenRadio_ID</title><polyline class="cls-1" points="22.46 38.76 1.38 38.76 1.38 1.73"/><polyline class="cls-1" points="163.13 38.76 142.04 38.76 142.04 1.73 163.13 1.73"/><line class="cls-1" x1="108.64" y1="1.73" x2="108.64" y2="38.76"/><circle class="cls-1" cx="122.97" cy="11.16" r="9.43"/><line class="cls-1" x1="224.39" y1="1.73" x2="224.39" y2="38.76"/><circle class="cls-1" cx="238.72" cy="11.16" r="9.44"/><line class="cls-1" x1="309.24" y1="38.76" x2="309.24" y2="1.73"/><line class="cls-1" x1="321.36" y1="38.76" x2="321.36" y2="20.24"/><line class="cls-1" x1="321.36" y1="10.63" x2="321.36" y2="1.38"/><circle class="cls-1" cx="294.91" cy="29.33" r="9.43"/><circle class="cls-1" cx="340.43" cy="29.33" r="9.43"/><path class="cls-1" d="M278.24,360.35a9.43,9.43,0,1,1-18.87,0" transform="translate(-230.8 -330.32)"/><polyline class="cls-1" points="195.61 38.76 195.61 11.16 174.37 38.76 174.37 11.16"/><polyline class="cls-1" points="56.95 38.76 56.95 11.16 78.19 38.76 78.19 11.16 99.43 38.76"/><polygon class="cls-1" points="258.36 38.76 258.36 11.16 279.6 38.76 258.36 38.76"/><line class="cls-1" x1="237.6" y1="25.04" x2="248.16" y2="38.76"/><line class="cls-1" x1="163.13" y1="20.24" x2="142.04" y2="20.24"/></svg>