<svg id="Layer_1" data-name="Layer 1" xmlns="http://www.w3.org/2000/svg" viewBox="0 0 158.86 39.79"><defs><style>.cls-1{fill:none;stroke:#1c75bc;stroke-linecap:round;stroke-linejoin:round;stroke-width:2.75px;}</style></defs><title>LumpenRadio_WLPN</title><polyline class="cls-1" points="79.89 38.41 58.81 38.41 58.81 1.38"/><line class="cls-1" x1="79.9" y1="29.33" x2="58.81" y2="29.33"/><line class="cls-1" x1="69.35" y1="38.41" x2="69.35" y2="1.38"/><line class="cls-1" x1="96.26" y1="1.38" x2="96.26" y2="38.41"/><line class="cls-1" x1="85.68" y1="1.38" x2="85.68" y2="38.41"/><circle class="cls-1" cx="110.59" cy="10.81" r="9.44"/><polyline class="cls-1" points="11.99 20.25 26.16 38.41 26.16 10.81 47.4 38.41 47.4 1.38"/><polyline class="cls-1" points="1.38 20.25 15.54 38.41 15.54 10.81 36.77 38.41 36.77 1.38"/><polyline class="cls-1" points="146.86 38.41 146.86 10.81 125.62 38.41 125.62 10.81"/><polyline class="cls-1" points="157.48 38.41 157.48 10.81 136.24 38.41 136.24 10.81"/></svg>