<svg id="Layer_1" data-name="Layer 1" xmlns="http://www.w3.org/2000/svg" viewBox="0 0 187.63 40.49"><defs><style>.cls-1{fill:none;stroke:#1c75bc;stroke-linecap:round;stroke-linejoin:round;stroke-width:2.75px;}</style></defs><title>LumpenRadio_105</title><line class="cls-1" x1="12" y1="38.41" x2="12" y2="1.38"/><circle class="cls-1" cx="27.5" cy="10.81" r="9.43"/><line class="cls-1" x1="63.71" y1="39.03" x2="63.71" y2="29.77"/><polyline class="cls-1" points="143.78 38.41 143.78 10.81 165.02 38.41 165.02 10.81 186.26 38.41"/><line class="cls-1" x1="12" y1="1.38" x2="1.38" y2="15.18"/><line class="cls-1" x1="46.47" y1="1.38" x2="57.09" y2="15.18"/><polyline class="cls-1" points="115.68 38.41 115.68 1.38 136.77 1.38"/><line class="cls-1" x1="136.77" y1="19.89" x2="115.68" y2="19.89"/><path class="cls-1" d="M277.28,248.82V267.7a9.43,9.43,0,1,1-9.44,9.43" transform="translate(-230.8 -247.45)"/><line class="cls-1" x1="80.5" y1="1.38" x2="91.12" y2="15.18"/><path class="cls-1" d="M311.3,248.82V267.7a9.43,9.43,0,1,1-9.44,9.43" transform="translate(-230.8 -247.45)"/></svg>