<svg id="Layer_1" data-name="Layer 1" xmlns="http://www.w3.org/2000/svg" viewBox="0 0 784.24 125.44"><defs><style>.cls-1{fill:none;stroke:#1c75bc;stroke-linecap:round;stroke-linejoin:round;stroke-width:5.5px;}</style></defs><title>LumpenRadio_ID</title><polyline class="cls-1" points="85.81 99.4 43.63 99.4 43.63 25.33"/><polyline class="cls-1" points="367.15 99.4 324.97 99.4 324.97 25.33 367.15 25.33"/><line class="cls-1" x1="258.16" y1="25.33" x2="258.16" y2="99.4"/><circle class="cls-1" cx="286.82" cy="44.2" r="18.87"/><line class="cls-1" x1="489.67" y1="25.33" x2="489.67" y2="99.4"/><circle class="cls-1" cx="518.33" cy="44.2" r="18.87"/><line class="cls-1" x1="659.36" y1="99.4" x2="659.36" y2="25.33"/><line class="cls-1" x1="683.61" y1="99.4" x2="683.61" y2="62.36"/><line class="cls-1" x1="683.61" y1="43.15" x2="683.61" y2="24.63"/><circle class="cls-1" cx="630.7" cy="80.53" r="18.87"/><circle class="cls-1" cx="721.74" cy="80.53" r="18.87"/><path class="cls-1" d="M135.76,81.94a18.87,18.87,0,1,1-37.74,0"/><polyline class="cls-1" points="432.11 99.4 432.11 44.2 389.63 99.4 389.63 44.2"/><polyline class="cls-1" points="154.78 99.4 154.78 44.2 197.26 99.4 197.26 44.2 239.74 99.4"/><polygon class="cls-1" points="557.6 99.4 557.6 44.2 600.08 99.4 557.6 99.4"/><line class="cls-1" x1="516.09" y1="71.96" x2="537.2" y2="99.4"/><line class="cls-1" x1="367.15" y1="62.36" x2="324.97" y2="62.36"/></svg>