<svg id="Layer_1" data-name="Layer 1" xmlns="http://www.w3.org/2000/svg" viewBox="0 0 59.58 93.14"><defs><style>.cls-1{fill:none;stroke:#1c75bc;stroke-linecap:round;stroke-linejoin:round;stroke-width:2.75px;}</style></defs><title>LumpenRadio_Hand</title><polygon class="cls-1" points="24.45 52.47 15.65 64.89 21.72 66.14 19.08 76.27 30.38 62.3 23.68 60.92 24.45 52.47"/><path class="cls-1" d="M462.31,460.32V437.66c0-2.56-2.62-4.64-5.18-4.64a4.64,4.64,0,0,0-4.64,4.64v50.79a20.93,20.93,0,0,0,20.93,20.93c5.16,0,12.8-.54,17.61-7.92s18-30.82,18-30.82l-0.27.35a4.64,4.64,0,0,0-4.1-6.8" transform="translate(-451.12 -417.61)"/><path class="cls-1" d="M472.84,460.32v-31c0-2.56-2.62-4.64-5.18-4.64s-5.31,2.08-5.31,4.64v1.51" transform="translate(-451.12 -417.61)"/><path class="cls-1" d="M483.38,460.32V423.63c0-2.56-2.62-4.64-5.18-4.64a5.58,5.58,0,0,0-5.14,3.54" transform="translate(-451.12 -417.61)"/><path class="cls-1" d="M501.13,465.75l-7.75,9.41v-42.5a4.64,4.64,0,0,0-4.64-4.64,5.32,5.32,0,0,0-1.54.24" transform="translate(-451.12 -417.61)"/></svg>