<svg id="Layer_1" data-name="Layer 1" xmlns="http://www.w3.org/2000/svg" viewBox="0 0 479.59 125.44"><defs><style>.cls-1{fill:none;stroke:#1c75bc;stroke-linecap:round;stroke-linejoin:round;stroke-width:5.5px;}</style></defs><title>LumpenRadio_ID</title><line class="cls-1" x1="76.16" y1="99.05" x2="76.16" y2="24.98"/><circle class="cls-1" cx="107.17" cy="43.85" r="18.87"/><line class="cls-1" x1="179.59" y1="100.28" x2="179.59" y2="81.76"/><polyline class="cls-1" points="339.71 99.05 339.71 43.85 382.19 99.05 382.19 43.85 424.68 99.05"/><line class="cls-1" x1="76.16" y1="24.98" x2="54.91" y2="52.58"/><line class="cls-1" x1="145.11" y1="24.98" x2="166.36" y2="52.58"/><polyline class="cls-1" points="283.53 99.05 283.53 24.98 325.71 24.98"/><line class="cls-1" x1="325.71" y1="62.01" x2="283.53" y2="62.01"/><path class="cls-1" d="M145.12,25V62.72a18.87,18.87,0,1,1-18.87,18.87"/><line class="cls-1" x1="213.16" y1="24.98" x2="234.4" y2="52.58"/><path class="cls-1" d="M213.16,25V62.72a18.87,18.87,0,1,1-18.87,18.87"/></svg>